<?xml version="1.0" encoding="utf-8"?>
<!-- Generator: Adobe Illustrator 19.0.0, SVG Export Plug-In . SVG Version: 6.00 Build 0)  -->
<svg version="1.1" id="Layer_1" xmlns="http://www.w3.org/2000/svg" xmlns:xlink="http://www.w3.org/1999/xlink" x="0px" y="0px"
	 viewBox="-167 366 276.7 61" style="enable-background:new -167 366 276.7 61;" xml:space="preserve">
<style type="text/css">
	.st0{fill:#1D1D1B;}
	.st1{clip-path:url(#SVGID_3_);fill:#B1B1B1;}
	.st2{fill:#B1B1B1;}
</style>
<desc>Created with Sketch.</desc>
<g>
	<g>
		<path id="SVGID_1_" class="st0" d="M-167,398.3c0.4,7.2,3.4,14.3,8.9,19.7c11.6,11.6,30.4,11.9,42.4,0.7l-8.1-8.1
			c-7.5,6.7-19.1,6.5-26.3-0.7c-3.3-3.3-5.1-7.4-5.5-11.7L-167,398.3L-167,398.3z M-147,396.5c0,5.8,4.7,10.5,10.5,10.5
			s10.5-4.7,10.5-10.5s-4.7-10.5-10.5-10.5C-142.4,386-147,390.7-147,396.5 M-158.1,374.9c-5.5,5.5-8.5,12.6-8.9,19.8h11.4
			c0.4-4.3,2.2-8.4,5.5-11.7c7.3-7.3,19.1-7.4,26.5-0.4l8.1-8.1c-5.9-5.7-13.5-8.5-21.1-8.5C-144.4,366-152.2,369-158.1,374.9"/>
	</g>
	<g>
		<defs>
			<path id="SVGID_2_" d="M-167,398.3c0.4,7.2,3.4,14.3,8.9,19.7c11.6,11.6,30.4,11.9,42.4,0.7l-8.1-8.1c-7.5,6.7-19.1,6.5-26.3-0.7
				c-3.3-3.3-5.1-7.4-5.5-11.7L-167,398.3L-167,398.3z M-147,396.5c0,5.8,4.7,10.5,10.5,10.5s10.5-4.7,10.5-10.5
				s-4.7-10.5-10.5-10.5C-142.4,386-147,390.7-147,396.5 M-158.1,374.9c-5.5,5.5-8.5,12.6-8.9,19.8h11.4c0.4-4.3,2.2-8.4,5.5-11.7
				c7.3-7.3,19.1-7.4,26.5-0.4l8.1-8.1c-5.9-5.7-13.5-8.5-21.1-8.5C-144.4,366-152.2,369-158.1,374.9"/>
		</defs>
		<clipPath id="SVGID_3_">
			<use xlink:href="#SVGID_2_"  style="overflow:visible;"/>
		</clipPath>
		<rect x="-167" y="366" class="st1" width="51.5" height="63.9"/>
	</g>
</g>
<g>
	<path class="st2" d="M-112.9,377.2l-8.2,8.1c4.8,6.7,4.8,15.8-0.1,22.5l8.1,8.2C-103.8,404.8-103.7,388.5-112.9,377.2"/>
	<path class="st2" d="M-69.1,413.6h-13.3c-2.8,0-5.1-1-7-2.9c-2-1.9-2.9-4.2-2.9-7v-14.8c0-2.7,1-5.1,2.9-7c1.9-2,4.2-2.9,7-2.9
		h13.3c0.7,0,1.3,0.3,1.8,0.8s0.7,1.1,0.7,1.8c0,0.7-0.2,1.3-0.7,1.8s-1.1,0.7-1.8,0.7h-13.3c-1.3,0-2.5,0.5-3.4,1.4
		s-1.4,2.1-1.4,3.4v14.8c0,1.3,0.5,2.5,1.4,3.4s2.1,1.4,3.4,1.4h13.3c0.7,0,1.3,0.2,1.8,0.7s0.7,1.1,0.7,1.8s-0.2,1.3-0.7,1.8
		C-67.7,413.4-68.4,413.6-69.1,413.6"/>
	<path class="st2" d="M-37,413.6c-0.7,0-1.3-0.3-1.8-0.8s-0.8-1.1-0.8-1.8v-6.5c0-1.3-0.5-2.5-1.4-3.4s-2.1-1.4-3.4-1.4H-56V411
		c0,0.7-0.2,1.3-0.7,1.8s-1.1,0.8-1.8,0.8c-0.7,0-1.3-0.3-1.8-0.8s-0.8-1.1-0.8-1.8v-29.5c0-0.7,0.3-1.3,0.8-1.8s1.1-0.8,1.8-0.8
		h14.1c2.8,0,5.1,1,7.1,2.9c1.9,2,2.9,4.3,2.9,7v0.9c0,1.5-0.3,2.8-0.9,4.1c-0.6,1.4-1.4,2.4-2.4,3.3l0,0c1,0.9,1.8,2,2.4,3.3
		c0.6,1.2,0.9,2.6,0.9,4.1v6.5c0,0.7-0.2,1.3-0.7,1.8C-35.6,413.4-36.2,413.6-37,413.6 M-55.9,394.6h11.6c1.3,0,2.5-0.5,3.4-1.4
		c0.9-0.9,1.4-2.1,1.4-3.4v-0.9c0-1.3-0.5-2.5-1.4-3.4s-2.1-1.4-3.4-1.4h-11.6V394.6z"/>
	<path class="st2" d="M-16.2,413.6c-0.7,0-1.3-0.3-1.9-0.8c-0.5-0.5-0.8-1.1-0.8-1.8v-12.5L-30.3,383c-0.4-0.6-0.6-1.2-0.5-1.9
		c0.2-0.7,0.5-1.3,1-1.7c0.5-0.3,1-0.5,1.5-0.5c0.8,0,1.5,0.4,2.1,1.1l10,13.4l10-13.4c0.5-0.7,1.2-1,2.1-1c0.6,0,1.1,0.2,1.5,0.5
		c0.5,0.4,0.9,1,1,1.7c0.1,0.7-0.1,1.3-0.5,1.9l-11.5,15.4V411c0,0.7-0.3,1.3-0.8,1.8C-14.9,413.4-15.5,413.6-16.2,413.6"/>
	<path class="st2" d="M20.4,413.6H12c-2.8,0-5.1-1-7-2.9c-2-1.9-2.9-4.2-2.9-7v-14.8c0-2.7,1-5.1,2.9-7c1.9-2,4.2-2.9,7-2.9h8.5
		c2.7,0,5.1,1,7,2.9c1.9,2,2.9,4.3,2.9,7v14.8c0,2.8-1,5.1-2.9,7C25.5,412.6,23.1,413.6,20.4,413.6 M20.4,384H12
		c-1.3,0-2.5,0.5-3.4,1.4s-1.4,2.1-1.4,3.4v14.8c0,1.3,0.5,2.5,1.4,3.4s2.1,1.4,3.4,1.4h8.4c1.3,0,2.5-0.5,3.4-1.4s1.4-2.1,1.4-3.4
		v-14.7c0-1.3-0.5-2.5-1.4-3.4C22.8,384.5,21.7,384,20.4,384"/>
	<path class="st2" d="M61.2,413.6c-0.9,0-1.6-0.4-2.1-1.1l-17.7-23.4V411c0,0.7-0.2,1.3-0.7,1.8s-1.1,0.8-1.8,0.8s-1.3-0.3-1.8-0.8
		s-0.8-1.1-0.8-1.8v-29.5c0-0.7,0.3-1.3,0.8-1.8s1.1-0.8,1.8-0.8c0.8,0,1.4,0.3,2,1l17.8,23.5v-21.9c0-0.7,0.3-1.3,0.8-1.8
		s1.1-0.8,1.8-0.8s1.3,0.3,1.8,0.8s0.7,1.1,0.7,1.8V411c0,0.7-0.2,1.3-0.7,1.8C62.5,413.4,61.9,413.6,61.2,413.6"/>
	<path class="st2" d="M74.3,383.9c-0.6,0.6-1.3,0.8-2,0.8c-0.8,0-1.5-0.3-2-0.8c-0.6-0.6-0.8-1.2-0.8-2c0-0.8,0.3-1.5,0.8-2
		c0.6-0.6,1.2-0.9,2-0.9s1.5,0.3,2,0.9c0.6,0.6,0.9,1.2,0.9,2C75.2,382.7,74.9,383.4,74.3,383.9 M72.3,413.6c-0.7,0-1.2-0.2-1.7-0.7
		s-0.7-1.1-0.7-1.7v-20.8c0-0.7,0.2-1.2,0.7-1.7s1-0.7,1.7-0.7s1.2,0.2,1.7,0.7s0.7,1,0.7,1.7v20.8c0,0.7-0.2,1.2-0.7,1.7
		S73,413.6,72.3,413.6"/>
	<path class="st2" d="M107.1,414.1c-0.7,0-1.3-0.3-1.9-0.8l-1-1c-1.6,0.9-3.2,1.3-5,1.3h-8.4c-2.8,0-5.1-1-7-2.9c-2-2-2.9-4.3-2.9-7
		v-14.8c0-2.7,1-5.1,2.9-7c1.9-2,4.2-2.9,7-2.9h8.5c2.7,0.1,5.1,1,7,2.9c1.9,2,2.9,4.3,2.9,7.1v14.8c0,1.8-0.4,3.5-1.3,5l1,1
		c0.5,0.5,0.8,1.1,0.8,1.8c0,0.7-0.3,1.3-0.8,1.8C108.4,413.8,107.8,414.1,107.1,414.1 M99.2,384.1h-8.4c-1.3,0-2.5,0.5-3.4,1.4
		s-1.4,2.1-1.4,3.4v14.8c0,1.3,0.5,2.5,1.4,3.4s2.1,1.4,3.4,1.4h8.4c0.2,0,0.6,0,1.1-0.1l-1.5-1.5c-0.5-0.5-0.8-1.1-0.8-1.8
		s0.3-1.3,0.8-1.9c0.5-0.5,1.1-0.8,1.8-0.8c0.7,0,1.3,0.3,1.8,0.8l1.5,1.5c0.1-0.4,0.1-0.7,0.1-1v-14.8c0-1.3-0.5-2.5-1.4-3.4
		C101.7,384.5,100.6,384.1,99.2,384.1"/>
</g>
</svg>
